/vscmnt/brussel_pixiu_data/_data_brussel/112/vsc11236/PredSimResults/SUBJ10opt3D/expIG/worker_12.mot
version=1
nRows=6
nColumns=50
inDegrees=yes
endheader
                time	         pelvis_tilt	         pelvis_list	     pelvis_rotation	           pelvis_tx	           pelvis_ty	           pelvis_tz	       hip_flexion_r	     hip_adduction_r	      hip_rotation_r	        knee_angle_r	       ankle_angle_r	         mtp_angle_r	       hip_flexion_l	     hip_adduction_l	      hip_rotation_l	        knee_angle_l	       ankle_angle_l	         mtp_angle_l	    lumbar_extension	      lumbar_bending	     lumbar_rotation	 ercspn_r/activation	 intobl_r/activation	 extobl_r/activation	    abd_r/activation	    add_r/activation	hamstrings_r/activation	bifemsh_r/activation	glut_max_r/activation	iliopsoas_r/activation	rect_fem_r/activation	  vasti_r/activation	gastroc_r/activation	 soleus_r/activation	tib_ant_r/activation	 ercspn_l/activation	 intobl_l/activation	 extobl_l/activation	    abd_l/activation	    add_l/activation	hamstrings_l/activation	bifemsh_l/activation	glut_max_l/activation	iliopsoas_l/activation	rect_fem_l/activation	  vasti_l/activation	gastroc_l/activation	 soleus_l/activation	tib_ant_l/activation	
          0.55204398	        -10.44350662	          1.64736015	        -13.45280658	          0.93847477	          0.78684752	          0.01162846	         -4.06059582	         -2.04798843	          8.49447293	        -26.51872218	         10.80172477	         37.99528842	         43.67614271	         -5.83868798	         -6.54107296	         -9.90749210	          0.01643387	          0.25490571	         -8.35811183	          1.96030170	          2.19124879	          0.09292003	          0.00999999	          0.00999999	          0.04161884	          0.05898799	          0.06819305	          0.41593252	          0.01726693	          0.00999999	          0.06820539	          0.06000870	          0.17865213	          0.30898792	          0.01702224	          0.14604248	          0.12077788	          0.00999999	          0.00999999	          0.07851150	          0.04896816	          0.27381290	          0.06833380	          0.09742177	          0.01659858	          0.00999999	          0.07348383	          0.00999999	          0.31819506	
          0.56308486	        -10.36212648	          1.71955896	        -13.76753794	          0.96218433	          0.78700105	          0.01119426	         -5.68090058	         -2.63942079	          8.14395138	        -25.99581066	          7.94704895	         38.93415175	         43.69250375	         -5.82370485	         -7.01622312	        -13.03403914	         -0.04364565	          0.24997917	         -8.03206580	          1.56970645	          2.45362451	          0.10767829	          0.00999999	          0.00999999	          0.03515061	          0.10420511	          0.05759477	          0.35129001	          0.01458337	          0.03069549	          0.05760519	          0.05068239	          0.16406486	          0.26096630	          0.01437671	          0.13352392	          0.10200708	          0.00999999	          0.00999999	          0.06630956	          0.06060163	          0.23125803	          0.14158847	          0.08228088	          0.01401889	          0.00999999	          0.06206328	          0.01184013	          0.34721166	
          0.57412574	        -10.27415910	          1.76558814	        -14.03767007	          0.98592940	          0.78706547	          0.01069396	         -7.03770954	         -3.16848272	          7.74527816	        -25.97174974	          5.27270433	         39.03663923	         43.64925065	         -5.78968286	         -7.38202363	        -16.13518145	         -0.29666342	          0.23886924	         -7.72561626	          1.19823206	          2.69582359	          0.12220361	          0.00999999	          0.00999999	          0.02968765	          0.16712860	          0.04864363	          0.29669397	          0.01231689	          0.16487214	          0.04865243	          0.04280554	          0.14736607	          0.22040799	          0.01214234	          0.12157237	          0.08615357	          0.00999999	          0.02633102	          0.09769267	          0.06079648	          0.19531686	          0.22984841	          0.06949313	          0.01184013	          0.00999999	          0.05241766	          0.00999999	          0.42706717	
          0.58516662	        -10.18096781	          1.78177796	        -14.25374624	          1.00940905	          0.78721984	          0.01011911	         -7.98330441	         -3.60470579	          7.35532850	        -26.64718443	          2.68343122	         38.43607971	         43.65162781	         -5.75167302	         -7.68520970	        -19.26909329	         -0.51709790	          0.21119197	         -7.47639080	          0.84615661	          2.90596191	          0.16835906	          0.00999999	          0.00999999	          0.02507372	          0.26402903	          0.04108364	          0.25058302	          0.01709807	          0.34398383	          0.04109107	          0.03615288	          0.12458114	          0.18615310	          0.01025523	          0.15660533	          0.07276393	          0.00999999	          0.07493140	          0.17629894	          0.06023080	          0.16496153	          0.32436995	          0.05869279	          0.00999999	          0.00999999	          0.04427112	          0.00999999	          0.44456994	
          0.59620750	        -10.07977653	          1.77254683	        -14.41821693	          1.03250292	          0.78761410	          0.00948549	         -8.39828298	         -3.93694777	          7.02925505	        -28.17449476	          0.07122938	         37.21364562	         43.69542947	         -5.69036854	         -7.85908039	        -22.50231094	         -0.33058956	          0.18416741	         -7.29079874	          0.50681002	          3.08181853	          0.23273713	          0.00999999	          0.00999999	          0.02117686	          0.25902416	          0.03469859	          0.21163844	          0.01659858	          0.44335714	          0.03470487	          0.03053415	          0.10521925	          0.15722195	          0.00999999	          0.15992125	          0.06145527	          0.00999999	          0.12249819	          0.23471593	          0.05086998	          0.13932389	          0.38326259	          0.04957100	          0.00999999	          0.00999999	          0.03739069	          0.00999999	          0.38827537	
          0.60724838	         -9.96714614	          1.76056115	        -14.54163932	          1.05516645	          0.78835837	          0.00877116	         -8.22972185	         -4.19216422	          6.80656240	        -30.56027464	         -2.70165819	         35.41654739	         43.75420057	         -5.55211271	         -7.81498836	        -25.78676437	          0.31602221	          0.16708160	         -7.15905400	          0.16649082	          3.23368270	          0.31399932	          0.03524953	          0.00999999	          0.01788564	          0.21876770	          0.02930588	          0.17874647	          0.01401889	          0.47445450	          0.02931118	          0.02578866	          0.08886651	          0.13278717	          0.00999999	          0.19616831	          0.05190414	          0.00999999	          0.17645972	          0.28942858	          0.04296398	          0.11767075	          0.43210042	          0.04186688	          0.00999999	          0.00999999	          0.03157958	          0.01951472	          0.32793121	
